<mxfile host="app.diagrams.net" modified="2024-02-28T02:57:18.411Z" agent="Mozilla/5.0 (Macintosh; Intel Mac OS X 10_15_7) AppleWebKit/537.36 (KHTML, like Gecko) Chrome/121.0.0.0 Safari/537.36" version="23.1.6" etag="wd6kSaPkh2urnrlVD74u" type="github">
  <diagram name="Page-1" id="1z1YP74HqzULOZpapBnE">
    <mxGraphModel>
      <root>
        <mxCell id="0" />
        <mxCell id="1" parent="0" />
      </root>
    </mxGraphModel>
  </diagram>
</mxfile>
